# xmcd CD database file
#
# Track frame offsets:
#	150
#	44335
#	83407
#	123252
#	156265
#	192372
#	232507
#	273500
#	283930
#	293200
#	303607
#
# Disc length: 4180 seconds
#
# Revision: 0
# Processed by: cddbd v1.5.1PL0 Copyright (c) Steve Scherf et al.
# Submitted via: CDex 1.51
#
DISCID=9510520b
DTITLE=野中政宏・モンスター前塚・他 - THE KING OF FIGHTERS '97〜激突編〜　ドラマＣＤ
DYEAR=1900
DGENRE=ゲーム関連
TTITLE0=STORY1 ROUND 1「暗黒街から来た男」
TTITLE1=STORY1 ROUND 2「迷う心の先に…」
TTITLE2=STORY1 ROUND 3「ブルーマリー・ブルース」
TTITLE3=STORY1 ROUND 4「獣の名は…八神 庵」
TTITLE4=STORY2 ROUND 2「チョイ・ボンゲの逆襲」
TTITLE5=STORY2 ROUND 3「不知火 舞、参上！」
TTITLE6=STORY2 ROUND 4「死闘の果てに見るもの」
TTITLE7=おまけ ラジオ予告＆ガイダンス その1
TTITLE8=おまけ ラジオ予告＆ガイダンス その2
TTITLE9=おまけ ラジオ予告＆ガイダンス その3
TTITLE10=ザ・キング・オブ・ファイターズ '97 〜宿命編〜 予告
EXTD=
EXTT0=
EXTT1=
EXTT2=
EXTT3=
EXTT4=
EXTT5=
EXTT6=
EXTT7=
EXTT8=
EXTT9=
EXTT10=
PLAYORDER=
